<svg enable-background="new 0 0 1000 1000" viewBox="0 0 1000 1000" xmlns="http://www.w3.org/2000/svg"><path d="m15.7 657.8h475.1v312.7h-475.1z" fill="#e0e0e0"/><path d="m506.4 657.8h476.3v312.7h-476.3z" fill="#e0e0e0"/><text fill="#2a4570" font-family="'Times-BoldItalic'" font-size="34" transform="translate(33.9507 700.7519)">Success</text><text fill="#2a4570" font-family="'Times-BoldItalic'" font-size="34" transform="translate(529.1533 700.7519)">Error</text><path d="m15.7 16.4h966.9v277.5h-966.9z" fill="#e0e0e0"/><path d="m15.7 311.3h475.1v329.1h-475.1z" fill="#e0e0e0"/><path d="m506.4 311.3h476.3v329.1h-476.3z" fill="#e0e0e0"/><path d="m349.2 87.1h300v120.2h-300z" fill="#0047d0"/><path d="m265.6 378.9 139.1-139.2" fill="none" stroke="#282828" stroke-miterlimit="10" stroke-width="10"/><path d="m245.2 399.3 64.2-17.2-47-47z" fill="#282828"/><path d="m716.4 378.9-139.1-139.2" fill="none" stroke="#282828" stroke-miterlimit="10" stroke-width="10"/><path d="m736.8 399.3-17.2-64.2-47 47z" fill="#282828"/><path d="m131.3 423h230v120.2h-230z" fill="#0047d0"/><path d="m629.9 423h230v120.2h-230z" fill="#0047d0"/><path d="m744.9 704.7v-137.8" fill="#d04800" stroke="#d04800" stroke-miterlimit="10" stroke-width="10"/><path d="m744.9 733.5 33.2-57.5h-66.4z" fill="#d04800"/><path d="m246.3 704.7v-137.8" fill="none" stroke="#008c33" stroke-miterlimit="10" stroke-width="10"/><path d="m246.3 733.5 33.3-57.5h-66.5z" fill="#008c33"/><g font-size="34"><text fill="#2a4570" font-family="'Times-BoldItalic'" transform="translate(33.9507 59.7379)">Instance</text><text fill="#2a4570" font-family="'Times-BoldItalic'" transform="translate(33.9507 354.2532)">Normal flow</text><text fill="#2a4570" font-family="'Times-BoldItalic'" transform="translate(763.7719 354.2534)">Alternate flow</text><text fill="#fff" font-family="'ArialMT'" transform="translate(412.7947 159.5881)">Method(arg)</text><text fill="#fff" font-family="'ArialMT'" transform="translate(171.9196 495.3523)">Method(1)</text><text fill="#fff" font-family="'ArialMT'" transform="translate(653.2625 495.3521)">Method(1.5)</text></g><path d="m795.6 794.9-15.6-15.6-35.1 35.1-35.1-35.1-15.5 15.6 35.1 35.1-35.1 35.1 15.5 15.5 35.1-35.1 35.1 35.1 15.6-15.5-35.1-35.1z" fill="#d04800"/><path d="m323.6 794.9-15.5-15.6-70.7 70.7-23.8-23.8-15.5 15.6 38.8 38.8.5-.5.5.5z" fill="#008c33"/></svg>