<svg enable-background="new 0 0 967 937.4" viewBox="0 0 967 937.4" xmlns="http://www.w3.org/2000/svg"><path d="m0 641.4h475.1v296h-475.1z" fill="#e0e0e0"/><path d="m490.7 641.4h476.3v296h-476.3z" fill="#e0e0e0"/><text fill="#2a4570" font-family="'Times-BoldItalic'" font-size="34" transform="translate(18.2507 684.3519)">Success</text><text fill="#2a4570" font-family="'Times-BoldItalic'" font-size="34" transform="translate(513.4533 684.3519)">Error</text><path d="m0 0h966.9v277.5h-966.9z" fill="#e0e0e0"/><path d="m0 294.9h475.1v329.1h-475.1z" fill="#e0e0e0"/><path d="m490.7 294.9h476.3v329.1h-476.3z" fill="#e0e0e0"/><path d="m333.5 70.7h300v120.2h-300z" fill="#0047d0"/><path d="m249.9 362.5 139.1-139.2" fill="none" stroke="#282828" stroke-miterlimit="10" stroke-width="10"/><path d="m229.5 382.9 64.2-17.2-47-47z" fill="#282828"/><path d="m700.7 362.5-139.1-139.2" fill="none" stroke="#282828" stroke-miterlimit="10" stroke-width="10"/><path d="m721.1 382.9-17.2-64.2-47 47z" fill="#282828"/><path d="m115.6 406.6h230v120.2h-230z" fill="#0047d0"/><path d="m614.2 406.6h230v120.2h-230z" fill="#0047d0"/><path d="m729.2 688.3v-137.8" fill="#d04800" stroke="#d04800" stroke-miterlimit="10" stroke-width="10"/><path d="m729.2 717.1 33.2-57.5h-66.4z" fill="#d04800"/><path d="m230.6 688.3v-137.8" fill="none" stroke="#008c33" stroke-miterlimit="10" stroke-width="10"/><path d="m230.6 717.1 33.3-57.5h-66.5z" fill="#008c33"/><g font-size="34"><text fill="#2a4570" font-family="'Times-BoldItalic'" transform="translate(18.2507 43.3379)">Instance</text><text fill="#2a4570" font-family="'Times-BoldItalic'" transform="translate(18.2507 337.8532)">Normal flow</text><text fill="#2a4570" font-family="'Times-BoldItalic'" transform="translate(748.0719 337.8534)">Alternate flow</text><text fill="#fff" font-family="'ArialMT'" transform="translate(397.0947 143.1881)">Method(arg)</text><text fill="#fff" font-family="'ArialMT'" transform="translate(156.2196 478.9523)">Method(1)</text><text fill="#fff" font-family="'ArialMT'" transform="translate(637.5625 478.9521)">Method(1.5)</text></g><path d="m779.9 777.5-15.6-15.6-35.1 35.1-35.1-35.1-15.5 15.6 35.1 35.1-35.1 35.1 15.5 15.5 35.1-35.1 35.1 35.1 15.6-15.5-35.1-35.1z" fill="#d04800"/><path d="m307.9 777.5-15.5-15.6-70.7 70.7-23.8-23.8-15.5 15.6 38.8 38.8.5-.5.5.5z" fill="#008c33"/></svg>