<svg enable-background="new 0 0 1066.1 813.2" viewBox="0 0 1066.1 813.2" xmlns="http://www.w3.org/2000/svg"><path d="m-.7 579.6h392.5v233.6h-392.5z" fill="#e0e0e0"/><path d="m409.9 579.6h656.3v233.6h-656.3z" fill="#e0e0e0"/><text fill="#2a4570" font-family="'Times-BoldItalic'" font-size="34" transform="translate(17.5358 622.5486)">Executed</text><text fill="#2a4570" font-family="'Times-BoldItalic'" font-size="34" transform="translate(947.4904 634.6331)">Results</text><g fill="#e0e0e0"><path d="m-.7 0h1066.9v233.1h-1066.9z"/><path d="m-.7 250.2h392.5v312h-392.5z"/><path d="m409.9 250.2h656.3v312h-656.3z"/></g><path d="m251.1 58.9h536.9v120.2h-536.9z" fill="#0047d0"/><path d="m201.2 350.7 139.1-139.2" fill="none" stroke="#282828" stroke-miterlimit="10" stroke-width="10"/><path d="m180.8 371.1 64.2-17.2-47-47z" fill="#282828"/><path d="m597 350.7-139.1-139.2" fill="none" stroke="#282828" stroke-miterlimit="10" stroke-width="10"/><path d="m617.4 371.1-17.2-64.2-47 47z" fill="#282828"/><path d="m846.3 350.7-139.1-139.2" fill="none" stroke="#282828" stroke-miterlimit="10" stroke-width="10"/><path d="m866.7 371.1-17.2-64.2-47 47z" fill="#282828"/><path d="m77.9 387.2h230v120.2h-230z" fill="#0047d0"/><path d="m489.9 387.2h230v120.2h-230z" fill="#0047d0"/><path d="m604.9 626.5v-102.6" fill="#d04800" stroke="#d04800" stroke-miterlimit="10" stroke-width="10"/><path d="m604.9 655.3 33.2-57.5h-66.4z" fill="#d04800"/><path d="m192.8 626.5v-102.6" fill="none" stroke="#008c33" stroke-miterlimit="10" stroke-width="10"/><path d="m192.8 655.3 33.3-57.5h-66.5z" fill="#008c33"/><text fill="#2a4570" font-family="'Times-BoldItalic'" font-size="34" transform="translate(17.5358 39.4485)">Execution</text><text fill="#2a4570" font-family="'Times-BoldItalic'" font-size="34" transform="translate(17.5358 292.8086)">Normal flow</text><text fill="#2a4570" font-family="'Times-BoldItalic'" font-size="34" transform="translate(881.3334 291.8083)">Simulations</text><path d="m251.1 99.1h536.9v40.2h-536.9z" fill="none"/><text fill="#fff" font-family="'ArialMT'" font-size="34" transform="translate(442.0414 128.2987)">method(a)</text><text fill="#fff" font-family="'ArialMT'" font-size="34" transform="translate(118.5047 459.5367)">method(a)</text><text fill="#fff" font-family="'ArialMT'" font-size="34" transform="translate(531.4729 459.5366)">method(b)</text><path d="m641.8 696.9-11.4-11.4-25.6 25.6-25.6-25.6-11.2 11.4 25.6 25.6-25.6 25.6 11.3 11.3 25.6-25.6 25.6 25.6 11.4-11.3-25.6-25.6z" fill="#d04800"/><path d="m251.1 696.9-11.3-11.4-51.5 51.5-17.3-17.3-11.3 11.4 28.3 28.3.4-.4.4.4z" fill="#008c33"/><path d="m747.4 387.2h230v120.2h-230z" fill="#0047d0"/><path d="m862.3 626.5v-102.6" fill="none" stroke="#008c33" stroke-miterlimit="10" stroke-width="10"/><path d="m862.3 655.3 33.3-57.5h-66.5z" fill="#008c33"/><text fill="#fff" font-family="'ArialMT'" font-size="34" transform="translate(787.9766 459.5367)">method(c)</text><path d="m920.5 696.9-11.3-11.4-51.5 51.5-17.3-17.3-11.3 11.4 28.3 28.3.4-.4.4.4z" fill="#008c33"/></svg>